<?xml version="1.0" standalone="no"?>
<!DOCTYPE svg PUBLIC "-//W3C//DTD SVG 20010904//EN"
 "http://www.w3.org/TR/2001/REC-SVG-20010904/DTD/svg10.dtd">
<svg version="1.0" xmlns="http://www.w3.org/2000/svg"
 width="133.000000pt" height="121.000000pt" viewBox="0 0 133.000000 121.000000"
 preserveAspectRatio="xMidYMid meet">
<metadata>
Created by potrace 1.13, written by Peter Selinger 2001-2015
</metadata>
<g transform="translate(0.000000,121.000000) scale(0.100000,-0.100000)"
fill="#000000" stroke="none">
<path d="M31 1184 l-31 -26 0 -553 0 -553 31 -26 31 -26 549 0 550 0 24 25 25
24 0 556 0 556 -25 24 -24 25 -550 0 -549 0 -31 -26z m289 -139 c32 -17 60
-61 60 -95 0 -53 -57 -110 -110 -110 -34 0 -78 28 -95 60 -19 37 -19 63 0 100
28 54 90 73 145 45z m626 -296 c19 -11 45 -40 57 -63 20 -38 22 -56 25 -273
l4 -233 -91 0 -91 0 0 180 c0 134 -4 189 -14 215 -16 39 -46 51 -100 41 -71
-13 -86 -61 -86 -272 l0 -164 -90 0 -90 0 0 290 0 290 85 0 85 0 0 -37 c1 -32
3 -35 13 -23 24 30 56 52 94 66 52 20 154 11 199 -17z m-586 -279 l0 -290 -90
0 -90 0 0 290 0 290 90 0 90 0 0 -290z"/>
</g>
</svg>
