<?xml version="1.0" standalone="no"?>
<!DOCTYPE svg PUBLIC "-//W3C//DTD SVG 20010904//EN"
 "http://www.w3.org/TR/2001/REC-SVG-20010904/DTD/svg10.dtd">
<svg version="1.0" xmlns="http://www.w3.org/2000/svg"
 width="200.000000pt" height="200.000000pt" viewBox="0 0 200.000000 200.000000"
 preserveAspectRatio="xMidYMid meet">
<metadata>
Created by potrace 1.13, written by Peter Selinger 2001-2015
</metadata>
<g transform="translate(0.000000,200.000000) scale(0.100000,-0.100000)"
fill="#000000" stroke="none">
<path d="M525 1989 c-266 -28 -444 -180 -502 -427 -20 -88 -31 -833 -14 -1007
22 -220 92 -354 238 -451 140 -93 268 -108 843 -101 445 5 484 10 617 74 76
37 179 140 216 216 64 133 69 172 74 617 7 575 -8 703 -101 843 -94 142 -230
215 -437 237 -118 12 -816 11 -934 -1z m906 -179 c134 -13 201 -40 270 -109
105 -105 118 -185 118 -701 0 -516 -13 -596 -118 -701 -105 -105 -185 -118
-701 -118 -516 0 -596 13 -701 118 -105 105 -118 185 -118 701 0 516 13 596
118 701 67 67 137 97 256 108 115 12 762 12 876 1z"/>
<path d="M1469 1635 c-15 -8 -34 -31 -44 -51 -59 -125 104 -232 195 -128 24
28 30 44 30 80 0 39 -5 51 -34 80 -28 28 -41 34 -77 34 -24 -1 -56 -7 -70 -15z"/>
<path d="M848 1491 c-115 -37 -213 -112 -280 -215 -103 -159 -106 -384 -7
-541 99 -158 254 -245 439 -245 183 0 330 80 431 234 107 163 107 389 0 552
-69 105 -165 179 -280 214 -83 26 -223 26 -303 1z m297 -193 c63 -33 119 -89
153 -153 24 -44 27 -62 27 -145 0 -84 -3 -101 -27 -145 -32 -60 -97 -124 -158
-156 -38 -20 -60 -24 -140 -24 -83 0 -101 3 -145 27 -64 33 -120 89 -153 153
-24 44 -27 62 -27 145 0 84 3 101 28 147 33 64 83 116 140 144 66 34 87 39
172 35 62 -2 91 -8 130 -28z"/>
</g>
</svg>
